HIERARCHY
ROOT pelvis
{
  OFFSET 0 100 0
  CHANNELS 6 Xposition Yposition Zposition Zrotation Xrotation Yrotation
  JOINT pelvis_right_femur
  {
    OFFSET -10.78128 -3.44521 -0.5502486
    CHANNELS 3 Zrotation Xrotation Yrotation
    JOINT right_femur_tibia
    {
      OFFSET -0.8047443 -44.0398 -0.1307829
      CHANNELS 3 Zrotation Xrotation Yrotation
      JOINT right_tibia_foot
      {
        OFFSET 3.006224 -47.83518 -5
        CHANNELS 3 Zrotation Xrotation Yrotation
        End Site
        {
          OFFSET 0 -5 15
        }
      }
    }
  }
  JOINT pelvis_left_femur
  {
    OFFSET 10.78128 -3.44521 -0.5502486
    CHANNELS 3 Zrotation Xrotation Yrotation
    JOINT left_femur_tibia
    {
      OFFSET 0.8047443 -44.0398 -0.1307829
      CHANNELS 3 Zrotation Xrotation Yrotation
      JOINT left_tibia_foot
      {
        OFFSET -4.370144 -48.10324 -4.275266
        CHANNELS 3 Zrotation Xrotation Yrotation
        End Site
        {
          OFFSET 0 -5 15
        }
      }
    }
  }
  JOINT pelvis_spine1
  {
    OFFSET 0 6.468898 -3.129235
    CHANNELS 3 Zrotation Xrotation Yrotation
    JOINT spine1
    {
      OFFSET 0 23.15396 4.99043
      CHANNELS 3 Zrotation Xrotation Yrotation
      JOINT spine2
      {
        OFFSET 0 20.79997 -5.064912
        CHANNELS 3 Zrotation Xrotation Yrotation
        JOINT neck
        {
          OFFSET 0 14.38658 9.616178
          CHANNELS 3 Zrotation Xrotation Yrotation
          End Site
          {
            OFFSET 0 20 0
          }
        }
      }
      JOINT right_manubrium
      {
        OFFSET -5.722621 16.35077 3.967754
        CHANNELS 3 Zrotation Xrotation Yrotation
        JOINT right_clavicle
        {
          OFFSET -13.16364 1.694482 -4.693211
          CHANNELS 3 Zrotation Xrotation Yrotation
          JOINT right_humerus
          {
            OFFSET -28.5034 -0.3100689 -2.792744
            CHANNELS 3 Zrotation Xrotation Yrotation
            JOINT right_radius
            {
              OFFSET -25.15693 0.02248979 -1.271978
              CHANNELS 3 Zrotation Xrotation Yrotation
              End Site
              {
                OFFSET -15 0 0
              }
            }
          }
        }
      }
      JOINT left_manubrium
      {
        OFFSET 5.722621 16.35077 3.967754
        CHANNELS 3 Zrotation Xrotation Yrotation
        JOINT left_clavicle
        {
          OFFSET 13.16364 1.694482 -4.693211
          CHANNELS 3 Zrotation Xrotation Yrotation
          JOINT left_humerus
          {
            OFFSET 29.39168 -1.063119 -2.237045
            CHANNELS 3 Zrotation Xrotation Yrotation
            JOINT left_radius
            {
              OFFSET 24.59957 -0.9528479 0.9047498
              CHANNELS 3 Zrotation Xrotation Yrotation
              End Site
              {
                OFFSET 15 -0 -0
              }
            }
          }
        }
      }
    }
  }
}
MOTION
Frames: 11
Frame Time: 0.0416666666667
0 103.5113 0 1.565318 -3.609836 0.2438471 1.13276 -10.09587 7.441776 -0 41.59901 -0 -6.814466 -16.09408 -3.954005 -6.702852 12.58267 -25.10395 -0 5.24884 -0 0.1168708 -19.08804 24.11328 -0.7297257 -1.903545 4.068414 0.4748765 6.911524 -7.309343 1.640424 22.87223 8.02872 4.601006 -22.95935 9.423418 5.276905 -17.8736 9.65835 89.27539 36.11509 -24.26191 -0 0 14.8111 -7.769084 9.836429 2.334887 7.164691 -21.24961 -2.245421 -99.32889 42.45648 26.33672 0 0 -26.39197 -8.189611 18.30686 27.28134
0.1378826 103.4929 1.29724 1.20553 -2.919575 0.3656332 1.69438 -13.06971 7.840619 -0 42.14559 -0 -6.354186 -15.68992 -4.197527 -6.472513 13.25017 -25.44668 -0 5.852535 -0 -1.470048 -20.78974 23.533 -0.7127378 -1.998086 4.056885 0.4791944 6.925039 -7.352388 1.671066 22.8286 8.063536 4.597625 -23.02678 9.55542 5.38735 -17.872 9.613486 89.33817 36.01139 -24.51464 -0 0 14.88851 -7.304867 9.700063 2.092875 7.29354 -21.27375 -2.213516 -99.51376 42.63675 26.41605 0 0 -26.52681 -8.013678 18.37815 27.18886
0.2806156 103.3004 2.888065 0.4895515 -2.105149 0.4055223 2.96874 -18.34359 6.927452 -0 38.8352 -0 -6.619874 -13.11425 -3.720701 -6.042807 13.20961 -23.81327 -0 6.45677 -0 -0.486386 -21.62804 22.77859 -1.134588 -1.378148 4.103257 1.10153 7.277968 -7.22404 1.321089 22.76709 7.822784 4.418093 -23.26234 8.860538 5.775198 -17.54211 10.38804 87.72849 37.01357 -22.22242 -0 0 13.98975 -8.909248 10.0997 4.254166 6.133432 -20.52459 -2.443491 -97.13009 39.17629 24.74432 0 0 -24.32087 -5.686556 17.21679 23.64491
0.4133151 102.9939 4.670193 -0.003454679 -0.9682845 0.44932 3.895756 -22.61616 6.781174 -0 35.99009 -0 -6.261414 -11.76518 -3.600583 -5.788732 13.29348 -22.98628 -0 6.590108 -0 -0.4949887 -22.84131 22.04902 -1.355973 -1.101691 4.004423 1.473463 7.425418 -7.244894 1.168931 22.7246 7.714234 4.303332 -23.43982 8.576613 5.937468 -17.3518 10.75044 87.09425 37.15861 -21.36498 -0 0 13.51505 -9.539563 10.16858 5.196172 5.56107 -20.14682 -2.592266 -96.12884 37.68741 23.96501 0 0 -23.30408 -4.902091 16.5588 22.27283
0.5568645 102.519 6.804273 -0.4400663 0.4000521 0.5116013 4.873128 -27.17478 6.448756 -0 31.46498 -0 -5.899489 -10.01497 -3.300584 -5.624377 13.32779 -21.7628 -0 6.567536 -0 0.2653588 -23.79895 21.31786 -1.509217 -0.8746695 3.988024 1.684731 7.554202 -7.224299 1.045711 22.70646 7.63029 4.241854 -23.46652 8.295734 5.980171 -17.25195 11.0115 86.61872 37.30707 -20.61897 -0 0 13.17941 -10.35826 10.33484 6.0066 5.135546 -19.9201 -2.713455 -95.36256 36.50304 23.42934 0 0 -22.56942 -4.439842 16.02357 21.38797
0.7063311 101.8789 9.364304 -0.7765722 1.673159 0.6283469 5.637211 -30.92478 6.015296 -0 26.76748 -0 -5.643331 -8.174857 -2.962644 -5.497624 13.50468 -20.63462 -0 6.683707 -0 0.5247516 -24.67128 20.36427 -1.617275 -0.7089315 3.999618 1.807703 7.657904 -7.196472 0.9551333 22.69766 7.571749 4.206759 -23.4401 8.072926 5.980758 -17.20294 11.19269 86.27834 37.41087 -20.04778 -0 0 12.95678 -11.09469 10.50172 6.62888 4.833683 -19.77948 -2.805567 -94.81981 35.62962 23.07681 0 0 -22.0442 -4.169193 15.61902 20.82687
0.8566623 101.1014 12.46371 -1.046044 2.781701 0.830943 6.225434 -33.82938 5.360936 -0 21.98058 -0 -5.610321 -6.11923 -2.532702 -5.389359 13.90465 -19.46277 -0 7.269424 -0 0.420959 -25.20184 19.1292 -1.702349 -0.5717923 4.040937 1.872625 7.753715 -7.154039 0.8803409 22.69652 7.525845 4.188299 -23.37085 7.872206 5.952182 -17.19092 11.3331 85.99114 37.51005 -19.52916 -0 0 12.80532 -11.8474 10.69193 7.176815 4.593103 -19.68549 -2.880612 -94.38755 34.89552 22.83205 0 0 -21.61113 -3.993903 15.28128 20.4317
0.9990172 100.2557 16.17452 -1.288252 3.576265 1.134764 6.650562 -35.53397 4.551442 -0 17.8919 -0 -5.858612 -4.076496 -2.071261 -5.256927 14.52507 -18.30204 -0 8.701867 -0 -0.2226068 -25.14948 17.59154 -1.77092 -0.4579325 4.106291 1.896718 7.846245 -7.100579 0.8180986 22.69761 7.489707 4.180657 -23.27678 7.693653 5.910142 -17.20567 11.44486 85.73419 37.60829 -19.04522 -0 0 12.71036 -12.59234 10.89484 7.6674 4.399679 -19.62211 -2.939518 -94.03386 34.25449 22.66328 0 0 -21.24085 -3.858136 14.9923 20.12597
1.126131 99.45886 20.53554 -1.564302 3.995124 1.529621 7.043122 -35.92239 3.744695 -0 15.05057 -0 -6.402247 -2.301865 -1.638951 -5.059782 15.25093 -17.13406 -0 11.45412 -0 -1.292124 -24.19617 15.82854 -1.829115 -0.3599253 4.191706 1.8914 7.938636 -7.037209 0.7647219 22.69897 7.460393 4.180135 -23.16503 7.530913 5.859519 -17.24127 11.53804 85.48915 37.70636 -18.57297 -0 0 12.65969 -13.3424 11.11066 8.125617 4.237804 -19.57754 -2.985546 -93.73159 33.66701 22.54805 0 0 -20.90561 -3.740652 14.73353 19.87136
1.236561 98.86049 25.51956 -1.921565 4.001405 1.963178 7.529931 -34.96098 3.150044 -0 13.8563 -0 -7.189477 -1.13435 -1.326698 -4.758398 15.78141 -15.96907 -0 15.93873 -0 -2.616824 -22.12323 14.00355 -1.880055 -0.2743881 4.293892 1.864354 8.032596 -6.965666 0.7184588 22.69837 7.436341 4.184248 -23.04175 7.381991 5.804948 -17.29317 11.61823 85.24639 37.80226 -18.10344 -0 0 12.64607 -14.09533 11.33607 8.562488 4.099966 -19.54479 -3.020292 -93.46565 33.11181 22.47163 0 0 -20.59238 -3.625441 14.49375 19.64193
1.337996 98.61246 31.0237 -2.355552 3.604659 2.340479 8.134448 -32.70483 2.89641 -0 14.25747 -0 -8.101512 -0.8793186 -1.216044 -4.339796 15.6489 -14.82097 -0 22.40668 -0 -4.015061 -18.91267 12.29347 -1.926354 -0.1985074 4.409719 1.821278 8.128944 -6.887363 0.6779531 22.69458 7.416388 4.191118 -22.91056 7.24482 5.748603 -17.3582 11.68945 84.99972 37.89238 -17.63026 -0 0 12.66421 -14.85357 11.56942 8.987203 3.979864 -19.51854 -3.045608 -93.22545 32.57456 22.42382 0 0 -20.29089 -3.506772 14.26422 19.42468
